<svg width="22" height="22" viewBox="0 0 22 22" fill="none" xmlns="http://www.w3.org/2000/svg">
<path d="M1.83317 9.16667H2.74984V15.5833H1.83317V14.6667H0.916504V10.0833H1.83317V9.16667Z" fill="#006AFE"/>
<path d="M17.4165 6.41667H16.4998V5.5H11.9165V2.75H10.0832V5.5H5.49984V6.41667H4.58317V7.33333H3.6665V16.5H4.58317V17.4167H5.49984V18.3333H16.4998V17.4167H17.4165V16.5H18.3332V7.33333H17.4165V6.41667ZM15.5832 11.9167H12.8332V9.16667H15.5832V11.9167ZM11.9165 15.5833H10.0832V14.6667H11.9165V15.5833ZM6.4165 14.6667H9.16651V15.5833H6.4165V14.6667ZM6.4165 9.16667H9.16651V11.9167H6.4165V9.16667ZM12.8332 15.5833V14.6667H15.5832V15.5833H12.8332Z" fill="#006AFE"/>
<path d="M21.0833 10.0833V14.6667H20.1667V15.5833H19.25V9.16667H20.1667V10.0833H21.0833Z" fill="#006AFE"/>
</svg>
