<svg width="22" height="22" viewBox="0 0 22 22" fill="none" xmlns="http://www.w3.org/2000/svg">
<path d="M20.1665 8.25001V6.41667H19.2498V4.58334H18.3332V3.66667H17.4165V2.75001H15.5832V1.83334H13.7498V0.916672H8.24984V1.83334H6.41651V2.75001H4.58317V3.66667H3.6665V4.58334H2.74984V6.41667H1.83317V8.25001H0.916504V13.75H1.83317V15.5833H2.74984V17.4167H3.6665V18.3333H4.58317V19.25H6.41651V20.1667H8.24984V21.0833H13.7498V20.1667H15.5832V19.25H17.4165V18.3333H18.3332V17.4167H19.2498V15.5833H20.1665V13.75H21.0832V8.25001H20.1665ZM11.9165 14.6667V13.75H10.9998V12.8333H10.0832V4.58334H11.9165V11.9167H12.8332V12.8333H13.7498V13.75H14.6665V14.6667H13.7498V15.5833H12.8332V14.6667H11.9165Z" fill="#F92C99"/>
</svg>
