<svg width="124" height="27" viewBox="0 0 124 27" fill="none" xmlns="http://www.w3.org/2000/svg">
<path d="M124 22.3079V26.9765H116.263V25.2286H114.517V23.4807H112.772V12.9184H110.727V26.9765H95.6269V25.2286H93.8812V23.4807H92.1355V8.3244H96.7612V20.597H98.5069V22.3455H106.139V8.3244H112.772V3.15469H117.397V8.3244H123.626L120.59 12.9184H117.397V20.597H119.143V22.3455H119.337V22.3079H124Z" fill="black"/>
<path d="M33.9056 6.78077V7.9109H36.1542V9.04103H37.2791V11.3013H35.0299V10.1712H32.7807V12.4314H31.6564V14.6917H30.5314V10.1712H27.158V11.3013H24.9087V9.04103H27.158V7.9109H28.2829V6.78077H27.158V5.65064H26.0337V4.52051H24.9087V3.39039H28.2829V4.52051H29.4072V3.39039H30.5314V0H31.6564V2.26026H32.7807V4.52051H33.9056V3.39039H37.2791V4.52051H36.1542V5.65064H35.0299V6.78077H33.9056Z" fill="black"/>
<path d="M88.7876 11.8437V10.0958H87.0419V8.34786H75.4704V10.0958H73.7247V11.8768H71.959V18.9055L70.3249 18.8725V17.1246H68.5792V15.3766H59.8501V12.9789H71.959V8.34786H56.9707V10.1328H55.225V11.8437H53.8305V8.34786H39.2605V13.2853H35.3502V16.4754H37.0966V18.2233H38.8422V20.0083H47.5707V22.369H35.4619V22.406H33.466V16.6756H28.8773V22.406H25.5107L25.5351 13.2853H22.9272V10.0958H22.0086V8.34786H3.47256H1.68295H0V10.0958V11.8663V27H4.58808V12.9789H10.3255V27H14.9143V12.9789H19.1286V14.7274H20.9119V27H50.4507V25.215H52.1964V23.5041H53.5903V27H68.5792V25.215H70.3249V23.5041H73.7247V25.2521H75.4704V27H87.0419V25.2521H88.7876V23.5041H90.5333V11.8437H88.7876ZM65.6992 22.369H53.9421V18.8725H52.1964V17.1246H50.4507V15.3766H41.7216V12.9789H53.4787V16.4754H55.225V18.2233H56.9707V20.0083H65.6992V22.369ZM85.9076 20.6204H84.1618V22.369H78.3504V20.6204H76.6047V14.7274H78.3504V12.9789H84.1618V14.7274H85.9076V20.6204Z" fill="black"/>
</svg>
