<svg width="43" height="43" viewBox="0 0 43 43" fill="none" xmlns="http://www.w3.org/2000/svg">
<g clip-path="url(#clip0_2911_5242)">
<path d="M27.752 9.84745L25.9615 8.05701L25.0663 8.95223L23.2759 7.16178L22.3807 8.05701L21.4854 7.16178L20.5902 8.05701L19.695 7.16178L17.9045 8.95223L17.0093 8.05701L15.2189 9.84745L14.3236 8.95223L8.95231 14.3236L9.84753 15.2188L8.05709 17.0092L8.95231 17.9045L7.16187 19.6949L8.05709 20.5901L7.16187 21.4854L8.05709 22.3806L7.16187 23.2758L8.95231 25.0662L8.05709 25.9615L9.84753 27.7519L8.95231 28.6471L14.3236 34.0185L15.2189 33.1233L17.0093 34.9137L17.9045 34.0185L19.695 35.8089L20.5902 34.9137L21.4854 35.8089L22.3807 34.9137L23.2759 35.8089L25.0663 34.0185L25.9615 34.9137L27.752 33.1233L28.6472 34.0185L34.0186 28.6471L33.1233 27.7519L34.9138 25.9615L34.0186 25.0662L35.809 23.2758L34.9138 22.3806L35.809 21.4854L34.9138 20.5901L35.809 19.6949L34.0186 17.9045L34.9138 17.0092L33.1233 15.2188L34.0186 14.3236L28.6472 8.95223L27.752 9.84745ZM26.8568 23.2758L25.9615 22.3806L25.0663 23.2758L24.1711 22.3806L22.3807 24.171L23.2759 25.0662L22.3807 25.9615L23.2759 26.8567L22.3807 27.7519L23.2759 28.6471L22.3807 29.5424L21.4854 28.6471L20.5902 29.5424L19.695 28.6471L20.5902 27.7519L19.695 26.8567L20.5902 25.9615L19.695 25.0662L20.5902 24.171L18.7998 22.3806L17.9045 23.2758L17.0093 22.3806L16.1141 23.2758L15.2189 22.3806L14.3236 23.2758L13.4284 22.3806L14.3236 21.4854L13.4284 20.5901L14.3236 19.6949L15.2189 20.5901L16.1141 19.6949L17.0093 20.5901L17.9045 19.6949L18.7998 20.5901L20.5902 18.7997L19.695 17.9045L20.5902 17.0092L19.695 16.114L20.5902 15.2188L19.695 14.3236L20.5902 13.4283L21.4854 14.3236L22.3807 13.4283L23.2759 14.3236L22.3807 15.2188L23.2759 16.114L22.3807 17.0092L23.2759 17.9045L22.3807 18.7997L24.1711 20.5901L25.0663 19.6949L25.9615 20.5901L26.8568 19.6949L27.752 20.5901L28.6472 19.6949L29.5424 20.5901L28.6472 21.4854L29.5424 22.3806L28.6472 23.2758L27.752 22.3806L26.8568 23.2758Z" fill="white"/>
</g>
<defs>
<clipPath id="clip0_2911_5242">
<rect width="30.3849" height="30.3849" fill="white" transform="translate(0 21.4854) rotate(-45)"/>
</clipPath>
</defs>
</svg>
