<svg width="24" height="24" viewBox="0 0 24 24" fill="none" xmlns="http://www.w3.org/2000/svg">
<path d="M10 11H11V21H10V22H8V21H7V11H8V10H10V11Z" fill="white"/>
<path d="M12 5H11V6H12V5Z" fill="white"/>
<path d="M13 6H12V7H13V6Z" fill="white"/>
<path d="M16 8H17V10H16V11H14V10H13V8H14V7H16V8Z" fill="white"/>
<path d="M16 15H17V21H16V22H14V21H13V15H14V14H16V15Z" fill="white"/>
<path d="M18 6H17V7H18V6Z" fill="white"/>
<path d="M19 5H18V6H19V5Z" fill="white"/>
<path d="M23 2V4H22V5H20V4H19V2H20V1H22V2H23Z" fill="white"/>
<path d="M22 11H23V21H22V22H20V21H19V11H20V10H22V11Z" fill="white"/>
<path d="M6 7H5V8H6V7Z" fill="white"/>
<path d="M4 9H5V11H4V12H2V11H1V9H2V8H4V9Z" fill="white"/>
<path d="M4 16H5V21H4V22H2V21H1V16H2V15H4V16Z" fill="white"/>
<path d="M7 6H6V7H7V6Z" fill="white"/>
<path d="M8 4H7V2H8V1H10V2H11V4H10V5H8V4Z" fill="white"/>
</svg>
